<?xml version="1.0" encoding="UTF-8"?>
<svg width="32px" height="32px" viewBox="0 0 32 32" version="1.1" xmlns="http://www.w3.org/2000/svg" xmlns:xlink="http://www.w3.org/1999/xlink">
    <title>画板</title>
    <g id="画板" stroke="none" stroke-width="1" fill="none" fill-rule="evenodd">
        <path d="M2.23645894,27.7257143 L3.54105999,20.4571429 L7.64123471,20.4571429 L8.94583576,27.7257143 L11.1822947,27.7257143 L6.52300524,4 L4.65928946,4 L0,27.7257143 L2.23645894,27.7257143 Z M7.17530577,17.8514286 L4.00698893,17.8514286 L5.49796156,9.48571429 L5.68433314,9.48571429 L7.17530577,17.8514286 Z M13.810134,27.7257143 L13.810134,18.5371429 L16.5125218,18.5371429 C18.0656183,18.5371429 19.2770336,17.8971429 20.1467676,16.6171429 C21.0165017,15.3371429 21.4513687,13.6 21.4513687,11.4057143 C21.4513687,9.21142857 21.0165017,7.47428571 20.1467676,6.19428571 C19.2770336,4.91428571 18.0656183,4.27428571 16.5125218,4.27428571 L16.5125218,4.27428571 L11.6668608,4.27428571 L11.6668608,27.7257143 L13.810134,27.7257143 Z M15.9534071,15.9314286 L13.810134,15.9314286 L13.810134,6.88 L15.9534071,6.88 C17.0716366,6.88 17.9103087,7.2 18.4694234,7.84 C19.0285381,8.48 19.3080955,9.66857143 19.3080955,11.4057143 C19.3080955,13.1428571 19.0285381,14.3314286 18.4694234,14.9714286 C17.9103087,15.6114286 17.0716366,15.9314286 15.9534071,15.9314286 L15.9534071,15.9314286 Z M26.9679674,28 C28.5210639,28 29.7480101,27.3828571 30.6488061,26.1485714 C31.549602,24.9142857 32,23.2457143 32,21.1428571 C32,19.68 31.6272568,18.3771429 30.8817705,17.2342857 C30.1362842,16.0914286 29.0801786,15.1085714 27.7134537,14.2857143 C26.2846049,13.4628571 25.3993399,12.7542857 25.0576587,12.16 C24.7159775,11.5657143 24.5451369,10.8571429 24.5451369,10.0342857 C24.5451369,9.02857143 24.7625704,8.22857143 25.1974374,7.63428571 C25.6323044,7.04 26.2224811,6.74285714 26.9679674,6.74285714 C27.7755776,6.74285714 28.3968162,7.15428571 28.8316832,7.97714286 C29.2665502,8.8 29.4529218,9.71428571 29.3907979,10.72 L29.3907979,10.72 L31.5340711,10.72 C31.5340711,9.07428571 31.1768589,7.54285714 30.4624345,6.12571429 C29.7480101,4.70857143 28.5831877,4 26.9679674,4 C25.7254902,4 24.6538536,4.59428571 23.7530577,5.78285714 C22.8522617,6.97142857 22.4018637,8.52571429 22.4018637,10.4457143 C22.4018637,11.8171429 22.728014,13.0057143 23.3803145,14.0114286 C24.032615,15.0171429 25.1042516,15.9314286 26.5952242,16.7542857 C27.6513298,17.3942857 28.45894,18.1028571 29.0180547,18.88 C29.5771695,19.6571429 29.8567268,20.5028571 29.8567268,21.4171429 C29.8567268,22.5142857 29.6237624,23.4514286 29.1578334,24.2285714 C28.6919045,25.0057143 27.9619491,25.3942857 26.9679674,25.3942857 C26.2224811,25.3942857 25.5701805,25.0285714 25.0110658,24.2971429 C24.4519511,23.5657143 24.1723937,22.5142857 24.1723937,21.1428571 L24.1723937,21.1428571 L24.1723937,20.32 L22.0291206,20.32 L22.0291206,21.28 C22.0291206,23.2 22.4639876,24.8 23.3337216,26.08 C24.2034556,27.36 25.4148709,28 26.9679674,28 Z" id="形状结合" stroke="#262626" stroke-width="0.2" fill="#262626" fill-rule="nonzero"></path>
    </g>
</svg>
